<?xml version="1.0" standalone="no"?>
<!DOCTYPE svg PUBLIC "-//W3C//DTD SVG 20010904//EN"
 "http://www.w3.org/TR/2001/REC-SVG-20010904/DTD/svg10.dtd">
<svg version="1.0" xmlns="http://www.w3.org/2000/svg"
 width="360.000000pt" height="360.000000pt" viewBox="0 0 360.000000 360.000000"
 preserveAspectRatio="xMidYMid meet">

<g transform="translate(0.000000,360.000000) scale(0.100000,-0.100000)"
fill="#000000" stroke="none">
<path d="M2591 3050 l-355 -5 -190 -290 c-105 -160 -424 -646 -709 -1080 -285
-435 -568 -866 -629 -958 -61 -92 -109 -169 -107 -170 2 -1 166 0 364 3 l359
5 236 362 c129 199 237 362 240 362 3 0 111 -163 241 -362 l236 -362 359 -5
c198 -3 361 -4 363 -3 2 1 -184 288 -413 637 -228 349 -417 638 -418 644 -2 5
176 282 395 616 218 333 397 608 397 611 0 3 -3 4 -7 3 -5 -2 -168 -5 -362 -8z"/>
<path d="M650 3046 c0 -5 259 -402 593 -909 71 -109 131 -196 133 -195 16 16
354 542 352 548 -2 4 -84 131 -183 283 l-180 276 -357 1 c-197 0 -358 -2 -358
-4z"/>
</g>
</svg>
