<?xml version="1.0" encoding="UTF-8"?>
<!DOCTYPE svg PUBLIC "-//W3C//DTD SVG 1.1//EN" "http://www.w3.org/Graphics/SVG/1.1/DTD/svg11.dtd">
<!-- Creator: CorelDRAW 2019 (64-Bit) -->
<svg xmlns="http://www.w3.org/2000/svg" xml:space="preserve" width="240px" height="240px" version="1.1" style="shape-rendering:geometricPrecision; text-rendering:geometricPrecision; image-rendering:optimizeQuality; fill-rule:evenodd; clip-rule:evenodd"
viewBox="0 0 240 240"
 xmlns:xlink="http://www.w3.org/1999/xlink"
 xmlns:xodm="http://www.corel.com/coreldraw/odm/2003">
 <defs>
  <style type="text/css">
   <![CDATA[
    .fil0 {fill:#242222;fill-rule:nonzero}
   ]]>
  </style>
 </defs>
 <g id="Layer_x0020_1">
  <metadata id="CorelCorpID_0Corel-Layer"/>
  <path class="fil0" d="M120 0c-32.59,0 -36.68,0.14 -49.48,0.72 -12.77,0.59 -21.49,2.61 -29.12,5.58 -7.9,3.07 -14.59,7.17 -21.26,13.84 -6.67,6.67 -10.77,13.36 -13.84,21.26 -2.97,7.63 -4.99,16.35 -5.58,29.12 -0.58,12.8 -0.72,16.89 -0.72,49.48 0,32.59 0.14,36.68 0.72,49.48 0.59,12.77 2.61,21.49 5.58,29.12 3.07,7.9 7.17,14.59 13.84,21.26 6.67,6.67 13.36,10.77 21.26,13.84 7.63,2.97 16.35,4.99 29.12,5.58 12.8,0.58 16.89,0.72 49.48,0.72 32.59,0 36.68,-0.14 49.48,-0.72 12.77,-0.59 21.49,-2.61 29.12,-5.58 7.9,-3.07 14.59,-7.17 21.26,-13.84 6.67,-6.67 10.77,-13.36 13.84,-21.26 2.97,-7.63 4.99,-16.35 5.58,-29.12 0.58,-12.8 0.72,-16.89 0.72,-49.48 0,-32.59 -0.14,-36.68 -0.72,-49.48 -0.59,-12.77 -2.61,-21.49 -5.58,-29.12 -3.07,-7.9 -7.17,-14.59 -13.84,-21.26 -6.67,-6.67 -13.36,-10.77 -21.26,-13.84 -7.63,-2.97 -16.35,-4.99 -29.12,-5.58 -12.8,-0.58 -16.89,-0.72 -49.48,-0.72l0 0zm78.46 55.94c0,7.96 -6.45,14.4 -14.4,14.4 -7.96,0 -14.4,-6.44 -14.4,-14.4 0,-7.95 6.44,-14.4 14.4,-14.4 7.95,0 14.4,6.45 14.4,14.4zm-78.46 104.06c-22.09,0 -40,-17.91 -40,-40 0,-22.09 17.91,-40 40,-40 22.09,0 40,17.91 40,40 0,22.09 -17.91,40 -40,40zm0 -101.62c-34.03,0 -61.62,27.59 -61.62,61.62 0,34.03 27.59,61.62 61.62,61.62 34.03,0 61.62,-27.59 61.62,-61.62 0,-34.03 -27.59,-61.62 -61.62,-61.62zm0 -36.76c32.04,0 35.84,0.12 48.49,0.7 11.7,0.54 18.05,2.49 22.28,4.13 5.6,2.18 9.6,4.78 13.8,8.98 4.2,4.2 6.8,8.2 8.98,13.8 1.64,4.23 3.59,10.58 4.13,22.28 0.58,12.65 0.7,16.45 0.7,48.49 0,32.04 -0.12,35.84 -0.7,48.49 -0.54,11.7 -2.49,18.05 -4.13,22.28 -2.18,5.6 -4.78,9.6 -8.98,13.8 -4.2,4.2 -8.2,6.8 -13.8,8.98 -4.23,1.64 -10.58,3.59 -22.28,4.13 -12.65,0.58 -16.45,0.7 -48.49,0.7 -32.04,0 -35.84,-0.12 -48.49,-0.7 -11.7,-0.54 -18.05,-2.49 -22.28,-4.13 -5.6,-2.18 -9.6,-4.78 -13.8,-8.98 -4.2,-4.2 -6.8,-8.2 -8.98,-13.8 -1.64,-4.23 -3.59,-10.58 -4.13,-22.28 -0.58,-12.65 -0.7,-16.45 -0.7,-48.49 0,-32.04 0.12,-35.84 0.7,-48.49 0.54,-11.7 2.49,-18.05 4.13,-22.28 2.18,-5.6 4.78,-9.6 8.98,-13.8 4.2,-4.2 8.2,-6.8 13.8,-8.98 4.23,-1.64 10.58,-3.59 22.28,-4.13 12.65,-0.58 16.45,-0.7 48.49,-0.7z"/>
 </g>
</svg>
